:FULLY-SPECIFIED
:FORCE-ALL-JOINTS-BE-3DOF
:DEGREES
510
root 5.93061 16.2541 -5.20544 0 0 0
lfemur 0 0 0
ltibia 0 0 0
lfoot 0 0 0
ltoes 0 0 0
rfemur 0 0 0
rtibia 0 0 0
rfoot 10.1285 9.38491 0.00956035
rtoes 0 0 0
lowerback 8.70829 0.172051 -0.4285
upperback 1.68837 0.451777 3.08622
thorax -3.15536 0.293404 3.40128
lowerneck -8.42645 -12.1765 -3.76445
upperneck 11.2607 -16.1975 2.80296
head 5.32695 -7.88666 0.243912
lclavicle 0 0 0
lhumerus -47.1487 -33.338 116.988
lradius 0 0 0
lwrist 0 0 0
lhand 0 0 0
lfingers 0 0 0
lthumb 28.6758 26.3258 0.156621
rclavicle 0 0 0
rhumerus -16.3022 40.6662 -79.2768
rradius 0 0 0
rwrist 0 0 0
rhand 0 0 0
rfingers 0 0 0
rthumb 0 0 0
511
root 5.99225 16.2106 -5.14789 0 0 0
lfemur 0 0 0
ltibia 0 0 0
lfoot 0 0 0
ltoes 0 0 0
rfemur 0 0 0
rtibia 0 0 0
rfoot 10.3774 9.47642 0.0113027
rtoes 0 0 0
lowerback 8.95966 0.236251 -0.257712
upperback 1.90051 0.59138 3.36037
thorax -3.0839 0.370658 3.57693
lowerneck -8.25044 -12.4621 -3.97439
upperneck 11.4071 -16.5766 2.9728
head 5.3939 -8.06661 0.291809
lclavicle 0 0 0
lhumerus -46.8882 -32.9307 116.788
lradius 0 0 0
lwrist 0 0 0
lhand 0 0 0
lfingers 0 0 0
lthumb 27.3011 26.0546 0.185243
rclavicle 0 0 0
rhumerus -13.4791 38.6052 -78.2077
rradius 0 0 0
rwrist 0 0 0
rhand 0 0 0
rfingers 0 0 0
rthumb 0 0 0
512
root 6.05363 16.1645 -5.09053 0 0 0
lfemur 0 0 0
ltibia 0 0 0
lfoot 0 0 0
ltoes 0 0 0
rfemur 0 0 0
rtibia 0 0 0
rfoot 10.6401 9.57296 0.0127099
rtoes 0 0 0
lowerback 9.22506 0.303164 -0.0772358
upperback 2.12503 0.73755 3.65014
thorax -3.00825 0.451918 3.76233
lowerneck -8.06339 -12.7627 -4.19709
upperneck 11.5606 -16.977 3.15125
head 5.46439 -8.25649 0.342131
lclavicle 0 0 0
lhumerus -46.6166 -32.5002 116.579
lradius 0 0 0
lwrist 0 0 0
lhand 0 0 0
lfingers 0 0 0
lthumb 25.8508 25.7678 0.208377
rclavicle 0 0 0
rhumerus -10.6372 36.3908 -77.2498
rradius 0 0 0
rwrist 0 0 0
rhand 0 0 0
rfingers 0 0 0
rthumb 0 0 0
513
root 6.11483 16.1161 -5.03342 0 0 0
lfemur 0 0 0
ltibia 0 0 0
lfoot 0 0 0
ltoes 0 0 0
rfemur 0 0 0
rtibia 0 0 0
rfoot 10.9123 9.67303 0.0137013
rtoes 0 0 0
lowerback 9.50035 0.371633 0.110147
upperback 2.35852 0.887847 3.9511
thorax -2.92956 0.535882 3.95461
lowerneck -7.86802 -13.0735 -4.42926
upperneck 11.7187 -17.3925 3.33542
head 5.53731 -8.45337 0.394064
lclavicle 0 0 0
lhumerus -46.3384 -32.0531 116.367
lradius 0 0 0
lwrist 0 0 0
lhand 0 0 0
lfingers 0 0 0
lthumb 24.3474 25.4701 0.224685
rclavicle 0 0 0
rhumerus -7.82047 34.0596 -76.4253
rradius 0 0 0
rwrist 0 0 0
rhand 0 0 0
rfingers 0 0 0
rthumb 0 0 0
514
root 6.17589 16.0655 -4.9766 0 0 0
lfemur 0 0 0
ltibia 0 0 0
lfoot 0 0 0
ltoes 0 0 0
rfemur 0 0 0
rtibia 0 0 0
rfoot 11.1899 9.77511 0.0142229
rtoes 0 0 0
lowerback 9.78141 0.44055 0.301634
upperback 2.59753 1.0399 4.25874
thorax -2.849 0.621261 4.15088
lowerneck -7.66713 -13.3898 -4.66752
upperneck 11.8789 -17.8168 3.5225
head 5.61154 -8.65427 0.446807
lclavicle 0 0 0
lhumerus -46.0579 -31.5962 116.153
lradius 0 0 0
lwrist 0 0 0
lhand 0 0 0
lfingers 0 0 0
lthumb 22.8138 25.166 0.233267
rclavicle 0 0 0
rhumerus -5.06375 31.6509 -75.746
rradius 0 0 0
rwrist 0 0 0
rhand 0 0 0
rfingers 0 0 0
rthumb 0 0 0
515
root 6.23689 16.0129 -4.92013 0 0 0
lfemur 0 0 0
ltibia 0 0 0
lfoot 0 0 0
ltoes 0 0 0
rfemur 0 0 0
rtibia 0 0 0
rfoot 11.469 9.8777 0.0142486
rtoes 0 0 0
lowerback 10.0641 0.508859 0.494405
upperback 2.83855 1.1914 4.56856
thorax -2.76775 0.706783 4.34823
lowerneck -7.46362 -13.7068 -4.90842
upperneck 12.0388 -18.2437 3.70969
head 5.686 -8.85622 0.499574
lclavicle 0 0 0
lhumerus -45.7795 -31.1361 115.943
lradius 0 0 0
lwrist 0 0 0
lhand 0 0 0
lfingers 0 0 0
lthumb 21.2726 24.8603 0.23369
rclavicle 0 0 0
rhumerus -2.39466 29.206 -75.2146
rradius 0 0 0
rwrist 0 0 0
rhand 0 0 0
rfingers 0 0 0
rthumb 0 0 0
516
root 6.29789 15.9587 -4.86405 0 0 0
lfemur 0 0 0
ltibia 0 0 0
lfoot 0 0 0
ltoes 0 0 0
rfemur 0 0 0
rtibia 0 0 0
rfoot 11.7453 9.97928 0.0137818
rtoes 0 0 0
lowerback 10.3442 0.57556 0.685617
upperback 3.07802 1.34013 4.87598
thorax -2.68701 0.791189 4.54378
lowerneck -7.26049 -14.0198 -5.14842
upperneck 12.1961 -18.6669 3.89426
head 5.75958 -9.05627 0.55159
lclavicle 0 0 0
lhumerus -45.5071 -30.6797 115.738
lradius 0 0 0
lwrist 0 0 0
lhand 0 0 0
lfingers 0 0 0
lthumb 19.7466 24.5578 0.226008
rclavicle 0 0 0
rhumerus 0.163935 26.7669 -74.8264
rradius 0 0 0
rwrist 0 0 0
rhand 0 0 0
rfingers 0 0 0
rthumb 0 0 0
517
root 6.35896 15.9029 -4.80844 0 0 0
lfemur 0 0 0
ltibia 0 0 0
lfoot 0 0 0
ltoes 0 0 0
rfemur 0 0 0
rtibia 0 0 0
rfoot 12.0147 10.0783 0.0128547
rtoes 0 0 0
lowerback 10.6176 0.639709 0.872411
upperback 3.31235 1.48394 5.1764
thorax -2.60798 0.87324 4.7346
lowerneck -7.0608 -14.3244 -5.3839
upperneck 12.3484 -19.08 4.07353
head 5.8312 -9.25142 0.602096
lclavicle 0 0 0
lhumerus -45.2444 -30.2338 115.542
lradius 0 0 0
lwrist 0 0 0
lhand 0 0 0
lfingers 0 0 0
lthumb 18.2583 24.263 0.210758
rclavicle 0 0 0
rhumerus 2.59181 24.3758 -74.5708
rradius 0 0 0
rwrist 0 0 0
rhand 0 0 0
rfingers 0 0 0
rthumb 0 0 0
